<svg width="23" height="22" viewBox="0 0 23 22" fill="none" xmlns="http://www.w3.org/2000/svg">
<g clip-path="url(#clip0)">
<path d="M21.5796 4.51159C21.5782 4.51159 21.5768 4.51159 21.5754 4.51159H20.1461V4.02122C20.1538 3.82713 20.0285 3.6527 19.8425 3.59849C18.8502 3.33776 17.8283 3.20703 16.8025 3.20957C15.116 3.20957 12.8181 3.59003 11.1189 5.32324C9.43234 3.57312 7.11757 3.20957 5.43525 3.20957C4.40941 3.20703 3.38758 3.33776 2.39526 3.59849C2.20922 3.6527 2.08399 3.82713 2.09169 4.02122V4.50737H0.67078C0.437932 4.50737 0.249146 4.69665 0.249146 4.9301V18.4323C0.249146 18.6657 0.437932 18.855 0.67078 18.855C0.743196 18.8548 0.814346 18.8359 0.877381 18.8C0.919544 18.7789 5.13589 16.4665 11.0219 17.9546H11.0851H11.1231C11.1567 17.9586 11.1907 17.9586 11.2243 17.9546C17.1272 16.4539 21.3435 18.762 21.3688 18.8C21.4993 18.8755 21.66 18.8755 21.7904 18.8C21.9201 18.725 22.0004 18.5866 22.0013 18.4365V4.93433C22.0013 4.70087 21.8125 4.51159 21.5796 4.51159ZM1.09241 17.7601V5.35706H2.10012V15.9593C2.09749 16.1927 2.28411 16.3841 2.51696 16.3867C2.53973 16.387 2.5625 16.3854 2.585 16.382C3.45726 16.2485 4.33789 16.1778 5.22021 16.1706C6.44243 16.1494 7.65953 16.3337 8.82097 16.7159C6.19814 16.3979 3.53774 16.7574 1.09241 17.7601ZM5.22021 15.3294C4.45331 15.3311 3.68731 15.3805 2.92652 15.4773V4.35518C3.74745 4.17182 4.58576 4.07824 5.42682 4.07618C7.00373 4.07618 9.17936 4.43973 10.6888 6.14758L10.7015 16.6779C9.82446 16.103 8.11263 15.3294 5.22021 15.3294ZM11.5447 6.14758C13.0542 4.45664 15.2298 4.07618 16.8067 4.07618C17.6477 4.07866 18.486 4.17219 19.307 4.35518V15.4773C18.5505 15.3796 17.7887 15.3288 17.026 15.3252C14.1504 15.3252 12.4344 16.0988 11.5447 16.6737V6.14758V6.14758ZM21.1538 17.7601C18.7032 16.7546 16.0367 16.3951 13.4084 16.7159C14.5753 16.3323 15.7982 16.148 17.026 16.1706C17.9138 16.1756 18.8002 16.2448 19.6781 16.3778C19.9083 16.4128 20.1232 16.2541 20.1582 16.0232C20.1616 16.0007 20.1632 15.9779 20.1629 15.955V5.35706H21.1706L21.1538 17.7601Z" fill="black"/>
</g>
<defs>
<clipPath id="clip0">
<rect width="21.7521" height="21.8089" fill="white" transform="translate(0.249146 0.128754)"/>
</clipPath>
</defs>
</svg>
