<svg width="23" height="23" viewBox="0 0 23 23" fill="none" xmlns="http://www.w3.org/2000/svg">
<path d="M21.3826 1.62573H1.95494C1.87653 1.62573 1.80134 1.65688 1.74589 1.71232C1.69045 1.76777 1.6593 1.84296 1.6593 1.92137V18.3605C1.65935 18.4389 1.69051 18.5141 1.74594 18.5695C1.80137 18.625 1.87655 18.6561 1.95494 18.6562H12.3807C12.3835 18.6602 12.3869 18.6643 12.3898 18.6683L11.5181 20.5131C11.4945 20.5629 11.4853 20.6184 11.4915 20.6732C11.4978 20.728 11.5192 20.7799 11.5535 20.8231C11.5877 20.8664 11.6334 20.8991 11.6853 20.9178C11.7372 20.9364 11.7932 20.9401 11.8472 20.9285L12.6472 20.7577L13.0248 21.4853C13.0498 21.5334 13.0874 21.5736 13.1337 21.6017C13.18 21.6298 13.233 21.6447 13.2872 21.6447H13.2927C13.3478 21.6436 13.4014 21.6273 13.4477 21.5974C13.494 21.5676 13.531 21.5254 13.5546 21.4757L14.2873 19.9247L15.0199 21.4757C15.0436 21.5255 15.0806 21.5676 15.1269 21.5975C15.1732 21.6273 15.2269 21.6437 15.282 21.6447H15.2874C15.3416 21.6446 15.3947 21.6297 15.441 21.6015C15.4873 21.5734 15.525 21.533 15.5499 21.4848L15.9259 20.7577L16.7274 20.9287C16.7813 20.9401 16.8373 20.9363 16.8891 20.9176C16.941 20.8989 16.9865 20.8661 17.0207 20.8229C17.0549 20.7797 17.0764 20.7278 17.0826 20.6731C17.0889 20.6183 17.0798 20.5629 17.0563 20.5131L16.1841 18.6675C16.187 18.6636 16.19 18.6601 16.1927 18.6562H21.3826C21.461 18.6561 21.5361 18.625 21.5916 18.5695C21.647 18.5141 21.6782 18.4389 21.6782 18.3605V1.92137C21.6782 1.84296 21.6471 1.76777 21.5916 1.71232C21.5362 1.65688 21.461 1.62573 21.3826 1.62573V1.62573ZM5.27267 17.0513C5.20649 16.5418 4.9736 16.0684 4.6103 15.7051C4.247 15.3418 3.77371 15.1089 3.26419 15.0426V5.23927C3.77371 5.17305 4.247 4.94012 4.6103 4.57679C4.9736 4.21346 5.20649 3.74015 5.27267 3.23062H18.0648C18.131 3.74015 18.3639 4.21346 18.7272 4.57679C19.0905 4.94012 19.5638 5.17305 20.0733 5.23927V15.0426C19.5638 15.1089 19.0905 15.3418 18.7272 15.7051C18.3639 16.0684 18.131 16.5418 18.0648 17.0513H16.5909C16.5226 16.4882 16.2505 15.9697 15.826 15.5936C15.4015 15.2175 14.8539 15.0098 14.2868 15.0098C13.7196 15.0098 13.1721 15.2175 12.7476 15.5936C12.323 15.9697 12.0509 16.4882 11.9826 17.0513H5.27267ZM14.2873 19.0638C13.9448 19.0638 13.61 18.9623 13.3252 18.772C13.0405 18.5817 12.8185 18.3113 12.6875 17.9949C12.5564 17.6785 12.5221 17.3303 12.5889 16.9944C12.6558 16.6585 12.8207 16.35 13.0628 16.1078C13.305 15.8656 13.6136 15.7007 13.9495 15.6339C14.2853 15.5671 14.6335 15.6014 14.9499 15.7324C15.2663 15.8635 15.5368 16.0854 15.727 16.3702C15.9173 16.655 16.0189 16.9897 16.0189 17.3322C16.0184 17.7913 15.8358 18.2315 15.5111 18.5561C15.1865 18.8807 14.7464 19.0633 14.2873 19.0638V19.0638ZM13.2752 20.6834L13.0681 20.2847C13.0382 20.2273 12.9903 20.1813 12.9317 20.1539C12.8731 20.1264 12.8071 20.1189 12.7439 20.1327L12.308 20.2258L12.8238 19.1343C13.104 19.3625 13.4338 19.5218 13.7867 19.5995L13.2752 20.6834ZM15.8288 20.1327C15.7654 20.1193 15.6994 20.127 15.6409 20.1547C15.5823 20.1824 15.5344 20.2286 15.5046 20.2861L15.2994 20.6827L14.7877 19.5995C15.1406 19.5216 15.4704 19.3622 15.7506 19.1339L16.2667 20.2261L15.8288 20.1327ZM21.0869 18.0649H16.4894C16.5349 17.9275 16.5674 17.7861 16.5865 17.6426H18.3417C18.4201 17.6425 18.4953 17.6113 18.5507 17.5559C18.6062 17.5005 18.6373 17.4253 18.6374 17.3469C18.6379 16.8878 18.8205 16.4477 19.1451 16.123C19.4697 15.7984 19.9099 15.6158 20.369 15.6153C20.4474 15.6153 20.5225 15.5841 20.578 15.5287C20.6334 15.4733 20.6646 15.3981 20.6646 15.3197V4.96222C20.6646 4.88381 20.6335 4.80861 20.578 4.75317C20.5226 4.69773 20.4474 4.66658 20.369 4.66658C19.9099 4.66609 19.4697 4.4835 19.1451 4.15887C18.8205 3.83423 18.6379 3.39408 18.6374 2.93499C18.6374 2.85658 18.6062 2.78138 18.5508 2.72594C18.4953 2.6705 18.4201 2.63935 18.3417 2.63935H4.99579C4.91738 2.63935 4.84218 2.6705 4.78674 2.72594C4.7313 2.78138 4.70015 2.85658 4.70015 2.93499C4.69966 3.39408 4.51706 3.83423 4.19243 4.15887C3.8678 4.4835 3.42765 4.66609 2.96856 4.66658C2.89015 4.66658 2.81495 4.69773 2.75951 4.75317C2.70407 4.80861 2.67292 4.88381 2.67292 4.96222V15.3197C2.67296 15.3981 2.70412 15.4733 2.75956 15.5287C2.81499 15.5841 2.89016 15.6153 2.96856 15.6153C3.42765 15.6158 3.8678 15.7984 4.19243 16.123C4.51706 16.4477 4.69966 16.8878 4.70015 17.3469C4.70019 17.4253 4.73136 17.5005 4.78679 17.5559C4.84222 17.6113 4.91739 17.6425 4.99579 17.6426H11.987C12.0061 17.7861 12.0386 17.9275 12.0842 18.0649H2.25058V2.21701H21.0869V18.0649Z" fill="black"/>
<path d="M4.99571 11.196H18.3417C18.4201 11.196 18.4953 11.1648 18.5507 11.1094C18.6061 11.0539 18.6373 10.9788 18.6373 10.9003C18.6373 10.8219 18.6061 10.7467 18.5507 10.6913C18.4953 10.6359 18.4201 10.6047 18.3417 10.6047H4.99571C4.9173 10.6047 4.84211 10.6359 4.78666 10.6913C4.73122 10.7467 4.70007 10.8219 4.70007 10.9003C4.70007 10.9788 4.73122 11.0539 4.78666 11.1094C4.84211 11.1648 4.9173 11.196 4.99571 11.196V11.196Z" fill="black"/>
<path d="M4.99571 12.7164H18.3417C18.4201 12.7164 18.4953 12.6852 18.5507 12.6298C18.6061 12.5743 18.6373 12.4991 18.6373 12.4207C18.6373 12.3423 18.6061 12.2671 18.5507 12.2117C18.4953 12.1562 18.4201 12.1251 18.3417 12.1251H4.99571C4.9173 12.1251 4.84211 12.1562 4.78666 12.2117C4.73122 12.2671 4.70007 12.3423 4.70007 12.4207C4.70007 12.4991 4.73122 12.5743 4.78666 12.6298C4.84211 12.6852 4.9173 12.7164 4.99571 12.7164V12.7164Z" fill="black"/>
<path d="M4.99571 9.67557H18.3417C18.4201 9.67557 18.4953 9.64442 18.5507 9.58897C18.6061 9.53353 18.6373 9.45834 18.6373 9.37993C18.6373 9.30152 18.6061 9.22632 18.5507 9.17088C18.4953 9.11544 18.4201 9.08429 18.3417 9.08429H4.99571C4.9173 9.08429 4.84211 9.11544 4.78666 9.17088C4.73122 9.22632 4.70007 9.30152 4.70007 9.37993C4.70007 9.45834 4.73122 9.53353 4.78666 9.58897C4.84211 9.64442 4.9173 9.67557 4.99571 9.67557V9.67557Z" fill="black"/>
<path d="M4.99571 8.15512H18.3417C18.4201 8.15512 18.4953 8.12397 18.5507 8.06853C18.6061 8.01309 18.6373 7.93789 18.6373 7.85948C18.6373 7.78107 18.6061 7.70588 18.5507 7.65043C18.4953 7.59499 18.4201 7.56384 18.3417 7.56384H4.99571C4.9173 7.56384 4.84211 7.59499 4.78666 7.65043C4.73122 7.70588 4.70007 7.78107 4.70007 7.85948C4.70007 7.93789 4.73122 8.01309 4.78666 8.06853C4.84211 8.12397 4.9173 8.15512 4.99571 8.15512V8.15512Z" fill="black"/>
<path d="M4.99571 6.63469H18.3417C18.4201 6.63469 18.4953 6.60354 18.5507 6.5481C18.6061 6.49265 18.6373 6.41745 18.6373 6.33904C18.6373 6.26063 18.6061 6.18543 18.5507 6.12999C18.4953 6.07454 18.4201 6.0434 18.3417 6.0434H4.99571C4.9173 6.0434 4.84211 6.07454 4.78666 6.12999C4.73122 6.18543 4.70007 6.26063 4.70007 6.33904C4.70007 6.41745 4.73122 6.49265 4.78666 6.5481C4.84211 6.60354 4.9173 6.63469 4.99571 6.63469V6.63469Z" fill="black"/>
<path d="M18.6373 13.9418C18.6372 13.8635 18.6061 13.7883 18.5507 13.7328C18.4952 13.6774 18.4201 13.6463 18.3417 13.6462H4.99571C4.9173 13.6462 4.84211 13.6774 4.78666 13.7328C4.73122 13.7882 4.70007 13.8634 4.70007 13.9418C4.70007 14.0203 4.73122 14.0955 4.78666 14.1509C4.84211 14.2063 4.9173 14.2375 4.99571 14.2375H18.3417C18.4201 14.2375 18.4953 14.2063 18.5507 14.1509C18.6061 14.0955 18.6373 14.0203 18.6373 13.9418Z" fill="black"/>
<path d="M14.7962 16.1262C14.724 16.0956 14.6426 16.0949 14.5699 16.1244C14.4973 16.1538 14.4392 16.2109 14.4087 16.2831C14.3781 16.3553 14.3774 16.4367 14.4069 16.5094C14.4363 16.5821 14.4934 16.6401 14.5656 16.6707C14.6958 16.7254 14.807 16.8174 14.8851 16.9351C14.9632 17.0528 15.0049 17.191 15.0048 17.3322C15.0048 17.4106 15.036 17.4858 15.0914 17.5413C15.1469 17.5967 15.2221 17.6279 15.3005 17.6279C15.3789 17.6279 15.4541 17.5967 15.5095 17.5413C15.565 17.4858 15.5961 17.4106 15.5961 17.3322C15.5963 17.0748 15.5205 16.823 15.3782 16.6084C15.2359 16.3939 15.0335 16.2261 14.7962 16.1262V16.1262Z" fill="black"/>
</svg>
