<svg width="44" height="36" viewBox="0 0 44 36" fill="none" xmlns="http://www.w3.org/2000/svg">
<path d="M14.4607 15.7116C15.4171 16.8336 16.1856 18.1082 17.0025 19.3336C17.3786 19.8979 17.9925 20.5596 18.1254 21.24C18.2749 22.0052 17.5961 23.0508 17.2708 23.7182C16.1577 26.002 14.7631 28.2341 11.9825 28.2934C12.1527 30.4775 15.9704 29.5758 17.3202 29.056C17.8076 29.8076 18.8735 29.7378 19.5335 29.1486C20.3465 28.4227 20.9461 26.8635 21.1329 25.8152C22.3286 26.9746 23.2316 28.8482 20.9423 29.056V29.8185H28.7582C29.2268 34.4949 34.7476 36.7236 38.8618 35.5785C40.6483 35.0811 42.1951 33.7892 43.2464 32.2967L42.4839 31.7248C41.2642 32.5808 40.2828 33.6588 38.8618 34.217C36.6859 35.0718 34.2569 34.11 33.3514 31.9155C32.2625 29.2761 32.2348 25.3798 33.4324 22.765C34.8803 19.6032 38.0905 19.9534 40.1785 22.1939C40.9451 23.0167 41.5938 23.9712 41.912 25.0526H42.6745V19.5243C41.9701 19.6373 41.4575 20.3036 40.7653 20.3162C39.4724 20.34 38.1174 19.4152 36.7649 19.3535C32.8035 19.1729 29.3416 21.9621 28.6174 25.8152C28.409 26.9239 28.3043 27.9499 28.5676 29.056C27.367 28.3308 26.7118 27.1565 25.9641 26.0058L24.1243 23.1463C23.837 22.6977 23.4409 22.1798 23.4466 21.6212C23.4581 20.4788 24.6583 19.0059 25.7083 18.6775C27.0059 18.2714 28.3789 18.4314 29.7114 18.373C30.985 18.3172 32.2874 18.0858 33.5241 17.7839C34.3145 17.5909 35.301 17.4164 35.9491 16.8901C37.125 15.9357 36.326 13.9339 36.5742 12.6615L33.1428 13.2334C33.9019 12.7671 35.2034 12.2391 35.4888 11.3194C35.7063 10.619 35.2709 9.66795 34.9897 9.03941C34.2424 7.36975 33.1667 5.90169 31.8084 4.67483C31.2569 4.1768 30.5001 3.58069 29.7114 3.59443C28.9794 3.60719 28.3139 4.18742 27.8222 4.67264C27.1068 5.37846 26.4297 6.2375 25.97 7.13307C25.5933 7.86711 25.377 8.74522 24.8241 9.37714C24.3601 9.90731 23.7021 10.0053 23.0392 10.1016C21.5492 10.318 19.9466 10.4585 18.464 10.1832C18.9288 9.37916 19.5278 8.7437 20.1797 8.08624C19.239 7.22633 18.4905 8.53324 17.8598 9.23004C17.0675 10.1053 16.0854 11.5432 15.0298 12.0843C14.4645 12.374 13.7403 12.2801 13.1263 12.2802H9.50424V13.424H28.1863V12.2802H26.28C26.7457 11.7176 27.2698 10.4717 28.0134 10.2684C28.4971 10.1362 28.9813 10.528 29.3227 10.8181C30.2643 11.6183 30.9728 12.7073 31.8084 13.6146C29.8921 13.7671 27.9511 14.3172 26.0894 14.7825C25.0062 15.0533 23.8286 15.2531 22.8486 15.8131C21.9665 16.3171 21.2724 17.0977 20.561 17.8086C20.336 17.1684 19.263 16.0511 19.6017 15.3718C19.9498 14.6735 20.8834 15.0394 21.1329 14.1865H13.1263C13.2567 14.6076 13.3321 14.7019 13.6982 14.9491C12.7768 15.8679 11.8833 16.7459 10.648 17.2236C8.35274 18.1112 5.92223 17.3136 4.94697 14.9491C3.86404 12.3234 3.8277 8.37835 5.08554 5.79864C6.58402 2.72537 9.64445 2.97047 11.774 5.22954C12.5348 6.03653 13.1729 7.0292 13.5075 8.08624H14.2701V2.55786C13.5468 2.67953 13.081 3.44505 12.3561 3.41057C11.5251 3.37103 10.7007 2.82944 9.88551 2.65656C8.28192 2.3165 6.24208 2.46081 4.7384 3.10668C3.49485 3.6408 2.42164 4.53836 1.59853 5.608C-1.05475 9.05598 -0.329502 14.9305 3.21333 17.4676C6.44302 19.7805 12.4216 19.5612 14.4607 15.7116Z" fill="#0097F0"/>
<path d="M28.5951 2.57356C28.5951 3.99489 27.4428 5.14711 26.0215 5.14711C24.6002 5.14711 23.4479 3.99489 23.4479 2.57356C23.4479 1.15222 24.6002 0 26.0215 0C27.4428 0 28.5951 1.15222 28.5951 2.57356Z" fill="#0097F0"/>
</svg>
