<svg width="23" height="23" viewBox="0 0 23 23" fill="none" xmlns="http://www.w3.org/2000/svg">
<g clip-path="url(#clip0)">
<path d="M19.3143 4.1563C17.3578 2.19986 14.6549 0.98996 11.6687 0.98996C8.68257 0.98996 5.9796 2.19986 4.02316 4.1563C2.06672 6.11274 0.856812 8.81572 0.856812 11.8019C0.856812 14.788 2.06672 17.491 4.02316 19.4474C5.9796 21.4039 8.68257 22.6138 11.6687 22.6138C14.6549 22.6138 17.3578 21.4039 19.3143 19.4474C21.2707 17.491 22.4806 14.788 22.4806 11.8019C22.4806 8.81572 21.2707 6.11274 19.3143 4.1563ZM18.3875 18.5207C16.6628 20.2454 14.2945 21.3009 11.6687 21.3009C9.04297 21.3009 6.67465 20.2454 4.94989 18.5207C3.25088 16.7959 2.16969 14.4276 2.16969 11.8019C2.16969 9.17612 3.25088 6.80779 4.94989 5.08304C6.67465 3.35828 9.04297 2.30283 11.6687 2.30283C14.2945 2.30283 16.6628 3.35828 18.3875 5.08304C20.1123 6.80779 21.1677 9.17612 21.1677 11.8019C21.1677 14.4276 20.1123 16.7959 18.3875 18.5207Z" fill="black"/>
<path d="M17.1006 11.1326H12.3383V5.36624C12.3383 5.00584 12.0551 4.69693 11.6689 4.69693C11.3085 4.69693 10.9996 4.9801 10.9996 5.36624V11.8019C10.9996 12.1623 11.3085 12.4712 11.6689 12.4712H17.1006C17.461 12.4712 17.7699 12.1881 17.7699 11.8019C17.7699 11.4415 17.4868 11.1326 17.1006 11.1326Z" fill="black"/>
</g>
<defs>
<clipPath id="clip0">
<rect width="21.6238" height="21.6238" fill="white" transform="translate(0.856812 0.98996)"/>
</clipPath>
</defs>
</svg>
